<svg width="100" height="114" viewBox="0 0 100 114" fill="none" xmlns="http://www.w3.org/2000/svg">
<path d="M50.14 43L62.28 50.1492V64.0271L50.14 70.5805L38 64.0271V50.1492L50.14 43Z" fill="#7B169688"/>
<rect x="6.38916" y="32.8865" width="12.8205" height="0.854701" transform="rotate(-30.5 6.38916 32.8865)" fill="#7B169688"/>
<rect x="26.7085" y="20.916" width="16.3925" height="0.854701" transform="rotate(-30.5 26.7085 20.916)" fill="#7B169688"/>
<rect x="6.41064" y="47.8633" width="14.9437" height="0.854701" transform="rotate(-90 6.41064 47.8633)" fill="#7B169688"/>
<rect x="6.41064" y="77.3504" width="9.40171" height="0.854701" transform="rotate(-90 6.41064 77.3504)" fill="#7B169688"/>
<rect x="92.479" y="79.4872" width="7.26496" height="0.854701" transform="rotate(-90 92.479 79.4872)" fill="#7B169688"/>
<rect x="92.479" y="66.6667" width="27.7778" height="0.854701" transform="rotate(-90 92.479 66.6667)" fill="#7B169688"/>
<rect x="52.5708" y="8.97437" width="16.0318" height="0.854701" transform="rotate(30.5 52.5708 8.97437)" fill="#7B169688"/>
<rect x="70.0923" y="19.3163" width="21.2938" height="0.854701" transform="rotate(30.5 70.0923 19.3163)" fill="#7B169688"/>
<rect x="56.8579" y="101.252" width="27.9756" height="0.854701" transform="rotate(-28.4 56.8579 101.252)" fill="#7B169688"/>
<rect x="49.4658" y="105.256" width="2.74315" height="0.854701" transform="rotate(-28.4 49.4658 105.256)" fill="#7B169688"/>
<rect x="45.3633" y="102.594" width="5.59934" height="0.854701" transform="rotate(28.4 45.3633 102.594)" fill="#7B169688"/>
<rect x="31.7847" y="95.2407" width="9.76553" height="0.854701" transform="rotate(28.4 31.7847 95.2407)" fill="#7B169688"/>
<rect x="10.8594" y="83.9743" width="17.2617" height="0.854701" transform="rotate(28.4 10.8594 83.9743)" fill="#7B169688"/>
</svg>
