<svg width="234" height="266" viewBox="0 0 234 266" fill="none" xmlns="http://www.w3.org/2000/svg">
<path d="M1.5 69.5846L116.705 1.74077L231.91 69.5846V201.244L116.705 263.434L1.5 201.244V69.5846Z" stroke="#7B169688" stroke-width="3"/>
<rect x="14.9502" y="76.9545" width="30" height="2" transform="rotate(-30.5 14.9502 76.9545)" fill="#7B169688"/>
<rect x="62.4976" y="48.9434" width="38.3584" height="2" transform="rotate(-30.5 62.4976 48.9434)" fill="#7B169688"/>
<rect x="15.0005" y="112" width="34.9683" height="2" transform="rotate(-90 15.0005 112)" fill="#7B169688"/>
<rect x="15.0005" y="181" width="22" height="2" transform="rotate(-90 15.0005 181)" fill="#7B169688"/>
<rect x="216.4" y="186" width="17" height="2" transform="rotate(-90 216.4 186)" fill="#7B169688"/>
<rect x="216.4" y="156" width="65" height="2" transform="rotate(-90 216.4 156)" fill="#7B169688"/>
<rect x="123.016" y="21" width="37.5143" height="2" transform="rotate(30.5 123.016 21)" fill="#7B169688"/>
<rect x="164.016" y="45.2" width="49.8274" height="2" transform="rotate(30.5 164.016 45.2)" fill="#7B169688"/>
<rect x="133.047" y="236.93" width="65.4628" height="2" transform="rotate(-28.4 133.047 236.93)" fill="#7B169688"/>
<rect x="115.75" y="246.3" width="6.41896" height="2" transform="rotate(-28.4 115.75 246.3)" fill="#7B169688"/>
<rect x="106.15" y="240.07" width="13.1025" height="2" transform="rotate(28.4 106.15 240.07)" fill="#7B169688"/>
<rect x="74.376" y="222.863" width="22.8513" height="2" transform="rotate(28.4 74.376 222.863)" fill="#7B169688"/>
<rect x="25.4111" y="196.5" width="40.3924" height="2" transform="rotate(28.4 25.4111 196.5)" fill="#7B169688"/>
</svg>
