<?xml version="1.0" encoding="iso-8859-1"?>
<!-- Uploaded to: SVG Repo, www.svgrepo.com, Generator: SVG Repo Mixer Tools -->
<svg fill="#ffffff" height="20px" width="20px" version="1.1" id="Layer_1" xmlns="http://www.w3.org/2000/svg" xmlns:xlink="http://www.w3.org/1999/xlink" 
	 viewBox="0 0 512 512" xml:space="preserve">
<g>
	<g>
		<g>
			<path d="M212.113,106.84h0.253c5.947,0,10.77-4.823,10.77-10.77c0-5.948-4.823-10.77-10.77-10.77h-0.253
				c-5.948,0-10.77,4.822-10.77,10.77C201.343,102.019,206.164,106.84,212.113,106.84z"/>
			<path d="M202.533,447.815h-0.253c-5.948,0-10.77,4.822-10.77,10.77c0,5.947,4.822,10.77,10.77,10.77h0.253
				c5.948,0,10.77-4.823,10.77-10.77C213.303,452.636,208.482,447.815,202.533,447.815z"/>
			<path d="M171.648,447.811H92.357c-5.948,0-10.77,4.822-10.77,10.77c0,5.947,4.822,10.77,10.77,10.77h79.291
				c5.947,0,10.77-4.823,10.77-10.77C182.418,452.633,177.597,447.811,171.648,447.811z"/>
			<path d="M462.288,0H92.357c-5.948,0-10.77,4.823-10.77,10.77v31.879H49.711c-5.948,0-10.77,4.823-10.77,10.77V501.23
				c0,5.947,4.822,10.77,10.77,10.77h369.93c5.948,0,10.77-4.823,10.77-10.77v-31.879h31.879c5.948,0,10.77-4.823,10.77-10.77V10.77
				C473.058,4.823,468.238,0,462.288,0z M408.87,490.46h-0.001H60.48V64.189h251.039v21.109h-68.521
				c-5.948,0-10.77,4.822-10.77,10.77c0,5.947,4.822,10.77,10.77,10.77h68.521v43.933c0,5.947,4.823,10.77,10.77,10.77h86.581
				V490.46z M333.059,140.001V79.42l30.288,30.288l30.291,30.293H333.059z M451.518,447.811h-21.109V151.199
				c0.006-0.143,0.022-0.283,0.022-0.427c0-3.179-1.378-6.037-3.568-8.009l-96.957-96.96c-0.34-0.34-0.709-0.646-1.088-0.935
				c-0.095-0.072-0.19-0.143-0.286-0.212c-0.381-0.27-0.772-0.524-1.183-0.743c-0.024-0.013-0.048-0.023-0.073-0.034
				c-0.391-0.204-0.795-0.377-1.205-0.531c-0.115-0.043-0.227-0.084-0.342-0.123c-0.435-0.146-0.877-0.276-1.329-0.366
				c-0.017-0.003-0.033-0.004-0.051-0.008c-0.435-0.085-0.877-0.135-1.321-0.165c-0.13-0.009-0.258-0.015-0.387-0.019
				c-0.117-0.004-0.234-0.018-0.351-0.018H103.128V21.54h348.391V447.811z"/>
			<path d="M315.532,224.369c-25.532-6.994-52.303-18.349-75.382-31.974c-3.379-1.995-7.573-1.996-10.952,0
				c-24.072,14.212-48.729,24.671-75.381,31.974c-4.68,1.282-7.923,5.536-7.923,10.388v41.365c0,44.929,20.748,74.689,38.153,91.743
				c18.236,17.866,40.478,28.925,50.63,28.925s32.395-11.059,50.63-28.925c17.406-17.053,38.154-46.813,38.154-91.743v-41.365
				C323.459,229.905,320.213,225.652,315.532,224.369z M234.675,375.209c-8.375-1.593-67.242-28.864-67.242-99.087V242.87
				c23.523-7.065,45.645-16.527,67.248-28.762c21.167,11.941,44.159,21.77,67.237,28.753v33.262h0.001
				C301.919,346.349,243.049,373.615,234.675,375.209z"/>
			<path d="M262.177,262.766l-39.313,39.314l-15.69-15.691c-4.207-4.206-11.026-4.206-15.232,0s-4.206,11.025,0,15.232
				l23.305,23.306c2.103,2.102,4.86,3.155,7.617,3.155c2.756,0,5.512-1.052,7.614-3.155l46.93-46.929
				c4.205-4.206,4.205-11.025,0-15.232C273.202,258.561,266.382,258.561,262.177,262.766z"/>
		</g>
	</g>
</g>
</svg>